# xmcd
#
# Track frame offsets:
# 150
# 21755
# 41737
# 57569
# 72054
# 86191
# 108299
# 129350
# 143302
# 163377
# 178027
# 199663
# 219616
# 235449
# 249939
# 264084
# 286211
# 307288
# 321240
#
# Disc length: 4549 seconds
#
#
# Revision: 0
# Processed by: cddbd v1.5.2PL0 Copyright (c) Steve Scherf et al.
# Submitted via: FreeRIP 2.951 
#
DISCID=1811c313
DTITLE=Paulo Renato - De Volta Pra Casa
DYEAR=2006
DGENRE=Evangélica
TTITLE0=De Volta Pra Casa
TTITLE1=A Hora de Deus
TTITLE2=Abra a Porta
TTITLE3=Não Tenho Te Esquecido
TTITLE4=Deus Que Faz
TTITLE5=Ceifeiros da Última Hora
TTITLE6=O Bom Samaritano
TTITLE7=O Deus que Eu Sirvo
TTITLE8=Você Diz
TTITLE9=Deus de Elizeu
TTITLE10=Playback
TTITLE11=Playback
TTITLE12=Playback
TTITLE13=Playback
TTITLE14=Playback
TTITLE15=Playback
TTITLE16=Playback
TTITLE17=Playback
TTITLE18=Playback
EXTD=Voz do Rio FM
EXTT0=
EXTT1=
EXTT2=
EXTT3=
EXTT4=
EXTT5=
EXTT6=
EXTT7=
EXTT8=
EXTT9=
EXTT10=
EXTT11=
EXTT12=
EXTT13=
EXTT14=
EXTT15=
EXTT16=
EXTT17=
EXTT18=
PLAYORDER=
